<svg id="SvgjsSvg1601" width="502.5" height="816" xmlns="http://www.w3.org/2000/svg" version="1.1" xmlns:xlink="http://www.w3.org/1999/xlink" xmlns:svgjs="http://svgjs.com/svgjs"><defs id="SvgjsDefs1602"><marker id="SvgjsMarker1605" markerWidth="16" markerHeight="12" refX="16" refY="6" viewBox="0 0 16 12" orient="auto" markerUnits="userSpaceOnUse"><path id="SvgjsPath1606" d="M0,2 L14,6 L0,11 L0,2" fill="#323232" stroke="#323232" stroke-width="2"></path></marker><marker id="SvgjsMarker1623" markerWidth="16" markerHeight="12" refX="16" refY="6" viewBox="0 0 16 12" orient="auto" markerUnits="userSpaceOnUse"><path id="SvgjsPath1624" d="M0,2 L14,6 L0,11 L0,2" fill="#323232" stroke="#323232" stroke-width="2"></path></marker><marker id="SvgjsMarker1631" markerWidth="16" markerHeight="12" refX="16" refY="6" viewBox="0 0 16 12" orient="auto" markerUnits="userSpaceOnUse"><path id="SvgjsPath1632" d="M0,2 L14,6 L0,11 L0,2" fill="#323232" stroke="#323232" stroke-width="2"></path></marker><marker id="SvgjsMarker1656" markerWidth="16" markerHeight="12" refX="16" refY="6" viewBox="0 0 16 12" orient="auto" markerUnits="userSpaceOnUse"><path id="SvgjsPath1657" d="M0,2 L14,6 L0,11 L0,2" fill="#323232" stroke="#323232" stroke-width="2"></path></marker><marker id="SvgjsMarker1666" markerWidth="16" markerHeight="12" refX="16" refY="6" viewBox="0 0 16 12" orient="auto" markerUnits="userSpaceOnUse"><path id="SvgjsPath1667" d="M0,2 L14,6 L0,11 L0,2" fill="#323232" stroke="#323232" stroke-width="2"></path></marker><marker id="SvgjsMarker1670" markerWidth="16" markerHeight="12" refX="16" refY="6" viewBox="0 0 16 12" orient="auto" markerUnits="userSpaceOnUse"><path id="SvgjsPath1671" d="M0,2 L14,6 L0,11 L0,2" fill="#323232" stroke="#323232" stroke-width="2"></path></marker><marker id="SvgjsMarker1728" markerWidth="16" markerHeight="12" refX="16" refY="6" viewBox="0 0 16 12" orient="auto" markerUnits="userSpaceOnUse"><path id="SvgjsPath1729" d="M0,2 L14,6 L0,11 L0,2" fill="#323232" stroke="#323232" stroke-width="2"></path></marker><marker id="SvgjsMarker1732" markerWidth="16" markerHeight="12" refX="16" refY="6" viewBox="0 0 16 12" orient="auto" markerUnits="userSpaceOnUse"><path id="SvgjsPath1733" d="M0,2 L14,6 L0,11 L0,2" fill="#323232" stroke="#323232" stroke-width="2"></path></marker><marker id="SvgjsMarker1740" markerWidth="16" markerHeight="12" refX="16" refY="6" viewBox="0 0 16 12" orient="auto" markerUnits="userSpaceOnUse"><path id="SvgjsPath1741" d="M0,2 L14,6 L0,11 L0,2" fill="#323232" stroke="#323232" stroke-width="2"></path></marker><marker id="SvgjsMarker1748" markerWidth="16" markerHeight="12" refX="16" refY="6" viewBox="0 0 16 12" orient="auto" markerUnits="userSpaceOnUse"><path id="SvgjsPath1749" d="M0,2 L14,6 L0,11 L0,2" fill="#323232" stroke="#323232" stroke-width="2"></path></marker><marker id="SvgjsMarker1756" markerWidth="16" markerHeight="12" refX="16" refY="6" viewBox="0 0 16 12" orient="auto" markerUnits="userSpaceOnUse"><path id="SvgjsPath1757" d="M0,2 L14,6 L0,11 L0,2" fill="#323232" stroke="#323232" stroke-width="2"></path></marker><pattern id="SvgjsPattern1770" x="0" y="0" width="78" height="28" patternUnits="userSpaceOnUse"><image id="SvgjsImage1771" xlink:href="https://fastapi.tiangolo.com/img/logo-margin/logo-teal.png" width="78" height="28" preserveAspectRatio="none" crossOrigin="anonymous" x="0" y="0"></image></pattern><marker id="SvgjsMarker1780" markerWidth="16" markerHeight="12" refX="16" refY="6" viewBox="0 0 16 12" orient="auto" markerUnits="userSpaceOnUse"><path id="SvgjsPath1781" d="M0,2 L14,6 L0,11 L0,2" fill="#323232" stroke="#323232" stroke-width="2"></path></marker><marker id="SvgjsMarker1784" markerWidth="16" markerHeight="12" refX="16" refY="6" viewBox="0 0 16 12" orient="auto" markerUnits="userSpaceOnUse"><path id="SvgjsPath1785" d="M0,2 L14,6 L0,11 L0,2" fill="#323232" stroke="#323232" stroke-width="2"></path></marker><pattern id="SvgjsPattern1788" x="0" y="0" width="37.5" height="38.25" patternUnits="userSpaceOnUse"><image id="SvgjsImage1789" xlink:href="https://docs.aiohttp.org/en/stable/_static/aiohttp-icon-128x128.png" width="37.5" height="38.25" preserveAspectRatio="none" crossOrigin="anonymous" x="0" y="0"></image></pattern><pattern id="SvgjsPattern1792" x="0" y="0" width="50.5" height="48.5" patternUnits="userSpaceOnUse"><image id="SvgjsImage1793" xlink:href="https://gss3.bdstatic.com/84oSdTum2Q5BphGlnYG/timg?wapp&amp;quality=80&amp;size=b150_150&amp;subsize=20480&amp;cut_x=0&amp;cut_w=0&amp;cut_y=0&amp;cut_h=0&amp;sec=1369815402&amp;srctrace&amp;di=c8341da7f6534a1a68ebd82242e582cd&amp;wh_rate=null&amp;src=http%3A%2F%2Fimgsrc.baidu.com%2Fforum%2Fpic%2Fitem%2F9a504fc2d56285350b5c6bde9def76c6a6ef6395.jpg" width="50.5" height="48.5" preserveAspectRatio="none" crossOrigin="anonymous" x="0" y="0"></image></pattern><pattern id="SvgjsPattern1796" x="0" y="0" width="97.5" height="34.5" patternUnits="userSpaceOnUse"><image id="SvgjsImage1797" xlink:href="https://redis.io/images/redis-white.png" width="97.5" height="34.5" preserveAspectRatio="none" crossOrigin="anonymous" x="0" y="0"></image></pattern><pattern id="SvgjsPattern1800" x="0" y="0" width="80" height="62.5" patternUnits="userSpaceOnUse"><image id="SvgjsImage1801" xlink:href="https://dss1.bdstatic.com/70cFuXSh_Q1YnxGkpoWK1HF6hhy/it/u=865625540,69448143&amp;fm=26&amp;gp=0.jpg" width="80" height="62.5" preserveAspectRatio="none" crossOrigin="anonymous" x="0" y="0"></image></pattern><pattern id="SvgjsPattern1804" x="0" y="0" width="59" height="56" patternUnits="userSpaceOnUse"><image id="SvgjsImage1805" xlink:href="https://timgsa.baidu.com/timg?image&amp;quality=80&amp;size=b9999_10000&amp;sec=1593626581668&amp;di=2792cf0f8e5b001fb6c3a8f2d028b156&amp;imgtype=0&amp;src=http%3A%2F%2Fimg1.doubanio.com%2Flpic%2Fs28361719.jpg" width="59" height="56" preserveAspectRatio="none" crossOrigin="anonymous" x="0" y="0"></image></pattern></defs><g id="SvgjsG1603"><path id="SvgjsPath1604" d="M251 461L369 461L369 187L266.5 187" stroke="#323232" stroke-width="2" fill="none" marker-end="url(#SvgjsMarker1605)"></path><rect id="SvgjsRect1607" width="124" height="48" x="307" y="245.19999999999993" fill="#ffffff"></rect><text id="SvgjsText1608" font-family="微软雅黑" text-anchor="middle" font-size="13px" width="124" fill="#323232" font-weight="400" align="top" anchor="middle" family="微软雅黑" size="13px" weight="400" font-style="" opacity="1" y="243.24999999999994" transform="rotate(0)"><tspan id="SvgjsTspan1609" dy="16" x="369"><tspan id="SvgjsTspan1610" style="text-decoration:;">New task to worker.</tspan></tspan><tspan id="SvgjsTspan1611" dy="16" x="369"><tspan id="SvgjsTspan1612" style="text-decoration:;">Task type:</tspan></tspan><tspan id="SvgjsTspan1613" dy="16" x="369"><tspan id="SvgjsTspan1614" style="text-decoration:;">Users/Comments</tspan></tspan></text></g><g id="SvgjsG1615" transform="translate(128,354)"><path id="SvgjsPath1616" d="M 0 25L 88 0L 176 25L 88 50Z" stroke="rgba(50,50,50,1)" stroke-width="2" fill-opacity="1" fill="#ffffff"></path><g id="SvgjsG1617"><text id="SvgjsText1618" font-family="微软雅黑" text-anchor="middle" font-size="13px" width="120" fill="#323232" font-weight="400" align="middle" anchor="middle" family="微软雅黑" size="13px" weight="400" font-style="" opacity="1" y="15.3" transform="rotate(0)"><tspan id="SvgjsTspan1619" dy="16" x="88"><tspan id="SvgjsTspan1620" style="text-decoration:;">StatusCode==200?</tspan></tspan></text></g></g><g id="SvgjsG1621"><path id="SvgjsPath1622" d="M128 379L97 379L97 601L165.5 601" stroke="#323232" stroke-width="2" fill="none" marker-end="url(#SvgjsMarker1623)"></path><rect id="SvgjsRect1625" width="28" height="16" x="83" y="403.29999999999995" fill="#ffffff"></rect><text id="SvgjsText1626" font-family="微软雅黑" text-anchor="middle" font-size="13px" width="28" fill="#323232" font-weight="400" align="top" anchor="middle" family="微软雅黑" size="13px" weight="400" font-style="" opacity="1" y="401.34999999999997" transform="rotate(0)"><tspan id="SvgjsTspan1627" dy="16" x="97"><tspan id="SvgjsTspan1628" style="text-decoration:;">True</tspan></tspan></text></g><g id="SvgjsG1629"><path id="SvgjsPath1630" d="M215 636L215 662L215 662L215 688" stroke="#323232" stroke-width="2" fill="none" marker-end="url(#SvgjsMarker1631)"></path><rect id="SvgjsRect1633" width="72" height="16" x="179" y="654" fill="#ffffff"></rect><text id="SvgjsText1634" font-family="微软雅黑" text-anchor="middle" font-size="13px" width="72" fill="#323232" font-weight="400" align="top" anchor="middle" family="微软雅黑" size="13px" weight="400" font-style="" opacity="1" y="652.05" transform="rotate(0)"><tspan id="SvgjsTspan1635" dy="16" x="215"><tspan id="SvgjsTspan1636" style="text-decoration:;">dump table</tspan></tspan></text></g><g id="SvgjsG1637" transform="translate(165.5,25)"><path id="SvgjsPath1638" d="M 0 16.833333333333332L 101 0L 101 57L 0 57L 0 16.833333333333332Z" stroke="rgba(50,50,50,1)" stroke-width="2" fill-opacity="1" fill="#ffffff"></path><g id="SvgjsG1639"><text id="SvgjsText1640" font-family="微软雅黑" text-anchor="middle" font-size="13px" width="75" fill="#323232" font-weight="400" align="middle" anchor="middle" family="微软雅黑" size="13px" weight="400" font-style="" opacity="1" y="13.400000000000002" transform="rotate(0)"><tspan id="SvgjsTspan1641" dy="16" x="50.5"><tspan id="SvgjsTspan1642" style="text-decoration:;">m.weibo.cn</tspan><tspan id="SvgjsTspan1643" style="text-decoration:;font-size: inherit;"> </tspan></tspan><tspan id="SvgjsTspan1644" dy="16" x="50.5"><tspan id="SvgjsTspan1645" style="text-decoration:;font-size: inherit;">url</tspan></tspan></text></g></g><g id="SvgjsG1646" transform="translate(152,245)"><path id="SvgjsPath1647" d="M 0 0L 128 0L 128 33L 0 33Z" stroke="rgba(50,50,50,1)" stroke-width="2" fill-opacity="1" fill="#ffffff"></path><g id="SvgjsG1648"><text id="SvgjsText1649" font-family="微软雅黑" text-anchor="middle" font-size="13px" width="96" fill="#323232" font-weight="400" align="middle" anchor="middle" family="微软雅黑" size="13px" weight="400" font-style="" opacity="1" y="-1.45" transform="rotate(0)"><tspan id="SvgjsTspan1650" dy="16" x="64"><tspan id="SvgjsTspan1651" style="text-decoration:;">cookie pool</tspan></tspan><tspan id="SvgjsTspan1652" dy="16" x="64"><tspan id="SvgjsTspan1653" style="text-decoration:;">(multiple users)</tspan></tspan></text></g></g><g id="SvgjsG1654"><path id="SvgjsPath1655" d="M216 225L216 235L216 235L216 245" stroke="#323232" stroke-width="2" fill="none" marker-end="url(#SvgjsMarker1656)"></path></g><g id="SvgjsG1658" transform="translate(152,299)"><path id="SvgjsPath1659" d="M 0 0L 128 0L 128 33L 0 33Z" stroke="rgba(50,50,50,1)" stroke-width="2" fill-opacity="1" fill="#ffffff"></path><g id="SvgjsG1660"><text id="SvgjsText1661" font-family="微软雅黑" text-anchor="middle" font-size="13px" width="102" fill="#323232" font-weight="400" align="middle" anchor="middle" family="微软雅黑" size="13px" weight="400" font-style="" opacity="1" y="6.55" transform="rotate(0)"><tspan id="SvgjsTspan1662" dy="16" x="64"><tspan id="SvgjsTspan1663" style="text-decoration:;">proxy pool(http)</tspan></tspan></text></g></g><g id="SvgjsG1664"><path id="SvgjsPath1665" d="M216 278L216 288.5L216 288.5L216 299" stroke="#323232" stroke-width="2" fill="none" marker-end="url(#SvgjsMarker1666)"></path></g><g id="SvgjsG1668"><path id="SvgjsPath1669" d="M216 332L216 343L216 343L216 354" stroke="#323232" stroke-width="2" fill="none" marker-end="url(#SvgjsMarker1670)"></path></g><g id="SvgjsG1672" transform="translate(165.5,566)"><path id="SvgjsPath1673" d="M 15.149999999999999 0L 89.33333333333333 0C 104.18181818181819 0 104.18181818181819 70 89.33333333333333 70L 15.149999999999999 70C -5.050000000000001 70 -5.050000000000001 0 15.149999999999999 0ZM 89.33333333333333 0C 74.75 0 74.75 70 89.33333333333333 70C 74.75 70 74.75 0 89.33333333333333 0" stroke="rgba(50,50,50,1)" stroke-width="2" fill-opacity="1" fill="#ffffff"></path><g id="SvgjsG1674"><text id="SvgjsText1675" font-family="微软雅黑" text-anchor="middle" font-size="13px" width="68" fill="#323232" font-weight="400" align="middle" anchor="middle" family="微软雅黑" size="13px" weight="400" font-style="" opacity="1" y="9.05" transform="rotate(0)"><tspan id="SvgjsTspan1676" dy="16" x="40.5"><tspan id="SvgjsTspan1677" style="text-decoration:;">Tables:</tspan></tspan><tspan id="SvgjsTspan1678" dy="16" x="40.5"><tspan id="SvgjsTspan1679" style="text-decoration:;">Users</tspan></tspan><tspan id="SvgjsTspan1680" dy="16" x="40.5"><tspan id="SvgjsTspan1681" style="text-decoration:;">Comments</tspan></tspan></text></g></g><g id="SvgjsG1682" transform="translate(165.5,691)"><path id="SvgjsPath1683" d="M 0 0L 101 0L 101 70L 0 70L 0 0ZM 16.833333333333332 0L 16.833333333333332 70M 0 14L 101 14" stroke="rgba(50,50,50,1)" stroke-width="2" fill-opacity="1" fill="#ffffff"></path><g id="SvgjsG1684"><text id="SvgjsText1685" font-family="微软雅黑" text-anchor="middle" font-size="13px" width="80" fill="#323232" font-weight="400" align="middle" anchor="middle" family="微软雅黑" size="13px" weight="400" font-style="" opacity="1" y="32.05" transform="rotate(0)"><tspan id="SvgjsTspan1686" dy="16" x="59.33333333333333"><tspan id="SvgjsTspan1687" style="text-decoration:;">data analysis</tspan></tspan></text></g></g><g id="SvgjsG1688" transform="translate(273,32)"><path id="SvgjsPath1689" d="M 0 0L 166 0L 166 78L 0 78Z" stroke="none" fill="none"></path><g id="SvgjsG1690"><text id="SvgjsText1691" font-family="微软雅黑" text-anchor="middle" font-size="13px" width="165" fill="#323232" font-weight="400" align="middle" anchor="middle" family="微软雅黑" size="13px" weight="400" font-style="" opacity="1" y="-2.95" transform="rotate(0)"><tspan id="SvgjsTspan1692" dy="16" x="83"><tspan id="SvgjsTspan1693" style="text-decoration:;">'https://m.weibo.cn/comm</tspan></tspan><tspan id="SvgjsTspan1694" dy="16" x="83"><tspan id="SvgjsTspan1695" style="text-decoration:;">ents/hotflow?</tspan></tspan><tspan id="SvgjsTspan1696" dy="16" x="83"><tspan id="SvgjsTspan1697" style="text-decoration:;">id=4467107636950632&amp;</tspan></tspan><tspan id="SvgjsTspan1698" dy="16" x="83"><tspan id="SvgjsTspan1699" style="text-decoration:;">mid=4467107636950632</tspan></tspan><tspan id="SvgjsTspan1700" dy="16" x="83"><tspan id="SvgjsTspan1701" style="text-decoration:;">&amp;max_id_type=0'</tspan></tspan></text></g></g><g id="SvgjsG1702" transform="translate(181,426)"><path id="SvgjsPath1703" d="M 35 70C -11.666666666666664 70 -11.666666666666664 0 35 0C 81.66666666666666 0 81.66666666666666 70 35 70L 70 70Z" stroke="rgba(50,50,50,1)" stroke-width="2" fill-opacity="1" fill="#ffffff"></path><g id="SvgjsG1704"><text id="SvgjsText1705" font-family="微软雅黑" text-anchor="middle" font-size="13px" width="39" fill="#323232" font-weight="400" align="middle" anchor="middle" family="微软雅黑" size="13px" weight="400" font-style="" opacity="1" y="17.05" transform="rotate(0)"><tspan id="SvgjsTspan1706" dy="16" x="35"><tspan id="SvgjsTspan1707" style="text-decoration:;">task </tspan></tspan><tspan id="SvgjsTspan1708" dy="16" x="35"><tspan id="SvgjsTspan1709" style="text-decoration:;">queue</tspan></tspan></text></g></g><g id="SvgjsG1710" transform="translate(165.5,175)"><path id="SvgjsPath1711" d="M 0 0L 101 0L 101 50L 0 50Z" stroke="rgba(50,50,50,1)" stroke-width="2" fill-opacity="1" fill="#ffffff"></path><g id="SvgjsG1712"><text id="SvgjsText1713" font-family="微软雅黑" text-anchor="middle" font-size="13px" width="45" fill="#323232" font-weight="400" align="middle" anchor="middle" family="微软雅黑" size="13px" weight="400" font-style="" opacity="1" y="-0.95" transform="rotate(0)"><tspan id="SvgjsTspan1714" dy="16" x="50.5"><tspan id="SvgjsTspan1715" style="text-decoration:;">Python</tspan></tspan><tspan id="SvgjsTspan1716" dy="16" x="50.5"><tspan id="SvgjsTspan1717" style="text-decoration:;">aiohttp </tspan></tspan><tspan id="SvgjsTspan1718" dy="16" x="50.5"><tspan id="SvgjsTspan1719" style="text-decoration:;">worker</tspan></tspan></text></g></g><g id="SvgjsG1720" transform="translate(140,107)"><path id="SvgjsPath1721" d="M 0 25L 76 0L 152 25L 76 50Z" stroke="rgba(50,50,50,1)" stroke-width="2" fill-opacity="1" fill="#ffffff"></path><g id="SvgjsG1722"><text id="SvgjsText1723" font-family="微软雅黑" text-anchor="middle" font-size="13px" width="110" fill="#323232" font-weight="400" align="middle" anchor="middle" family="微软雅黑" size="13px" weight="400" font-style="" opacity="1" y="15.3" transform="rotate(0)"><tspan id="SvgjsTspan1724" dy="16" x="76"><tspan id="SvgjsTspan1725" style="text-decoration:;">max_id_type==1?</tspan></tspan></text></g></g><g id="SvgjsG1726"><path id="SvgjsPath1727" d="M216 82L216 94.5L216 94.5L216 107" stroke="#323232" stroke-width="2" fill="none" marker-end="url(#SvgjsMarker1728)"></path></g><g id="SvgjsG1730"><path id="SvgjsPath1731" d="M140 130.5L25 130.5L25 601L165.5 601" stroke="#323232" stroke-width="2" fill="none" marker-end="url(#SvgjsMarker1732)"></path><rect id="SvgjsRect1734" width="31" height="16" x="77.5" y="122" fill="#ffffff"></rect><text id="SvgjsText1735" font-family="微软雅黑" text-anchor="middle" font-size="13px" width="31" fill="#323232" font-weight="400" align="top" anchor="middle" family="微软雅黑" size="13px" weight="400" font-style="" opacity="1" y="120.05" transform="rotate(0)"><tspan id="SvgjsTspan1736" dy="16" x="93"><tspan id="SvgjsTspan1737" style="text-decoration:;">False</tspan></tspan></text></g><g id="SvgjsG1738"><path id="SvgjsPath1739" d="M304 379L334.5 379L334.5 379L366 379" stroke="#323232" stroke-width="2" fill="none" marker-end="url(#SvgjsMarker1740)"></path><rect id="SvgjsRect1742" width="31" height="16" x="319.5" y="371" fill="#ffffff"></rect><text id="SvgjsText1743" font-family="微软雅黑" text-anchor="middle" font-size="13px" width="31" fill="#323232" font-weight="400" align="top" anchor="middle" family="微软雅黑" size="13px" weight="400" font-style="" opacity="1" y="369.05" transform="rotate(0)"><tspan id="SvgjsTspan1744" dy="16" x="335"><tspan id="SvgjsTspan1745" style="text-decoration:;">False</tspan></tspan></text></g><g id="SvgjsG1746"><path id="SvgjsPath1747" d="M97 461L138.5 461L138.5 461L181 461" stroke="#323232" stroke-width="2" fill="none" marker-end="url(#SvgjsMarker1748)"></path><rect id="SvgjsRect1750" width="34" height="16" x="122" y="453.00000000000006" fill="#ffffff"></rect><text id="SvgjsText1751" font-family="微软雅黑" text-anchor="middle" font-size="13px" width="34" fill="#323232" font-weight="400" align="top" anchor="middle" family="微软雅黑" size="13px" weight="400" font-style="" opacity="1" y="451.05000000000007" transform="rotate(0)"><tspan id="SvgjsTspan1752" dy="16" x="139"><tspan id="SvgjsTspan1753" style="text-decoration:;">pop()</tspan></tspan></text></g><g id="SvgjsG1754"><path id="SvgjsPath1755" d="M292 132L444 132L444 526L216 526L216 496" stroke="#323232" stroke-width="2" fill="none" marker-end="url(#SvgjsMarker1756)"></path><rect id="SvgjsRect1758" width="28" height="16" x="338" y="124" fill="#ffffff"></rect><text id="SvgjsText1759" font-family="微软雅黑" text-anchor="middle" font-size="13px" width="28" fill="#323232" font-weight="400" align="top" anchor="middle" family="微软雅黑" size="13px" weight="400" font-style="" opacity="1" y="122.05" transform="rotate(0)"><tspan id="SvgjsTspan1760" dy="16" x="352"><tspan id="SvgjsTspan1761" style="text-decoration:;">True</tspan></tspan></text></g><g id="SvgjsG1762" transform="translate(265,496)"><path id="SvgjsPath1763" d="M 0 0L 120 0L 120 40L 0 40Z" stroke="none" fill="none"></path><g id="SvgjsG1764"><text id="SvgjsText1765" font-family="微软雅黑" text-anchor="middle" font-size="13px" width="64" fill="#323232" font-weight="400" align="middle" anchor="middle" family="微软雅黑" size="13px" weight="400" font-style="" opacity="1" y="10.05" transform="rotate(0)"><tspan id="SvgjsTspan1766" dy="16" x="60"><tspan id="SvgjsTspan1767" style="text-decoration:;">push(task)</tspan></tspan></text></g></g><g id="SvgjsG1768" transform="translate(385,667)"><path id="SvgjsPath1769" d="M 0 0L 78 0L 78 28L 0 28Z" stroke="none" fill="url(#SvgjsPattern1770)"></path></g><g id="SvgjsG1772" transform="translate(376.5,639)"><path id="SvgjsPath1773" d="M 0 0L 101 0L 101 28L 0 28Z" stroke="rgba(50,50,50,1)" stroke-width="2" fill-opacity="1" fill="#ffffff"></path><g id="SvgjsG1774"><text id="SvgjsText1775" font-family="微软雅黑" text-anchor="middle" font-size="13px" width="79" fill="#323232" font-weight="400" align="middle" anchor="middle" family="微软雅黑" size="13px" weight="400" font-style="" opacity="1" y="4.05" transform="rotate(0)"><tspan id="SvgjsTspan1776" dy="16" x="50.5"><tspan id="SvgjsTspan1777" style="text-decoration:;">presentation</tspan></tspan></text></g></g><g id="SvgjsG1778"><path id="SvgjsPath1779" d="M216 566L216 536L427 536L427 639" stroke="#323232" stroke-width="2" fill="none" marker-end="url(#SvgjsMarker1780)"></path></g><g id="SvgjsG1782"><path id="SvgjsPath1783" d="M376.5 653L349 653L349 791L216 791L216 761" stroke="#323232" stroke-width="2" fill="none" marker-end="url(#SvgjsMarker1784)"></path></g><g id="SvgjsG1786" transform="translate(119.5,180.875)"><path id="SvgjsPath1787" d="M 0 0L 37.5 0L 37.5 38.25L 0 38.25Z" stroke="none" fill="url(#SvgjsPattern1788)"></path></g><g id="SvgjsG1790" transform="translate(106.5,37)"><path id="SvgjsPath1791" d="M 0 0L 50.5 0L 50.5 48.5L 0 48.5Z" stroke="none" fill="url(#SvgjsPattern1792)"></path></g><g id="SvgjsG1794" transform="translate(257.5,426)"><path id="SvgjsPath1795" d="M 0 0L 97.5 0L 97.5 34.5L 0 34.5Z" stroke="none" fill="url(#SvgjsPattern1796)"></path></g><g id="SvgjsG1798" transform="translate(273,569.75)"><path id="SvgjsPath1799" d="M 0 0L 80 0L 80 62.5L 0 62.5Z" stroke="none" fill="url(#SvgjsPattern1800)"></path></g><g id="SvgjsG1802" transform="translate(275,695)"><path id="SvgjsPath1803" d="M 0 0L 59 0L 59 56L 0 56Z" stroke="none" fill="url(#SvgjsPattern1804)"></path></g></svg>